<svg viewBox="0 0 101 88" fill="white" xmlns="http://www.w3.org/2000/svg">
    <g clip-path="url(#clip0_6_54)">
        <path
            d="M1.80966 45.5288V43.3712C3.74692 43.3712 5.09836 42.9651 5.86398 42.1531C6.64121 41.3411 7.02982 39.9839 7.02982 38.0814V32.5132C7.02982 30.9124 7.18063 29.5261 7.48223 28.3545C7.79544 27.1828 8.30006 26.2142 8.99608 25.4486C9.6921 24.683 10.6201 24.1146 11.7802 23.7433C12.9402 23.3721 14.3729 23.1865 16.0781 23.1865V26.597C14.7325 26.597 13.671 26.8058 12.8938 27.2234C12.1282 27.6411 11.583 28.2907 11.2582 29.1723C10.9449 30.0423 10.7883 31.156 10.7883 32.5132V39.4734C10.7883 40.3783 10.6665 41.2019 10.4229 41.9443C10.1909 42.6867 9.75591 43.3248 9.11789 43.8584C8.47987 44.392 7.56924 44.8038 6.386 45.0938C5.21436 45.3838 3.68892 45.5288 1.80966 45.5288ZM16.0781 67.7319C14.3729 67.7319 12.9402 67.5463 11.7802 67.1751C10.6201 66.8039 9.6921 66.2355 8.99608 65.4698C8.30006 64.7042 7.79544 63.7356 7.48223 62.564C7.18063 61.3923 7.02982 60.0061 7.02982 58.4052V52.8371C7.02982 50.9346 6.64121 49.5774 5.86398 48.7653C5.09836 47.9533 3.74692 47.5473 1.80966 47.5473V45.3896C3.68892 45.3896 5.21436 45.5346 6.386 45.8246C7.56924 46.1146 8.47987 46.5265 9.11789 47.0601C9.75591 47.5937 10.1909 48.2317 10.4229 48.9741C10.6665 49.7166 10.7883 50.5402 10.7883 51.445V58.4052C10.7883 59.7625 10.9449 60.8761 11.2582 61.7461C11.583 62.6162 12.1282 63.26 12.8938 63.6776C13.671 64.1068 14.7325 64.3214 16.0781 64.3214V67.7319ZM1.80966 47.5473V43.3712H5.91619V47.5473H1.80966Z"
            fill="white" />
        <path
            d="M49.491 21.8401H53.264V29.1901H49.491V21.8401ZM49.491 50.407H53.264V63.98H49.491V50.407ZM44.052 29.8271H47.825C46.894 38.843 44.101 44.086 32.243 46.732C31.9 45.85 31.018 44.38 30.234 43.645C41.014 41.538 43.268 37.324 44.052 29.8271ZM54.93 29.6801H58.5559V40.068C58.5559 41.244 58.8989 41.44 60.7119 41.44C61.5449 41.44 65.9059 41.44 67.0329 41.44C68.4539 41.44 68.6989 40.95 68.8949 37.52C69.6299 38.059 71.0999 38.598 72.1289 38.843C71.6879 43.498 70.6589 44.674 67.3759 44.674C66.4449 44.674 61.2019 44.674 60.3199 44.674C56.0079 44.674 54.93 43.694 54.93 40.068V29.6801ZM30.822 26.9361H72.2759V35.756H68.5519V30.3171H34.448V36.834H30.822V26.9361ZM35.036 48.839H68.7969V52.171H35.036V48.839ZM29.891 62.118H73.0599V65.45H29.891V62.118Z"
            fill="white" />
        <path
            d="M88.067 69.655H85.666V67.156H87.283C90.223 67.156 90.958 65.686 90.958 62.207C90.958 58.924 90.664 56.033 90.664 52.407C90.664 48.879 91.546 47.115 93.898 46.478V46.282C91.546 45.645 90.664 43.881 90.664 40.402C90.664 36.727 90.958 33.885 90.958 30.602C90.958 27.074 90.223 25.653 87.283 25.653H85.666V23.105H88.067C92.33 23.105 94.388 24.771 94.388 30.357C94.388 34.277 93.898 37.119 93.898 40.843C93.898 42.901 94.878 45.008 98.504 45.008V47.752C94.878 47.801 93.898 49.908 93.898 51.966C93.898 55.592 94.388 58.483 94.388 62.452C94.388 68.038 92.33 69.655 88.067 69.655Z"
            fill="white" />
        <path
            d="M50.9999 18C55.4182 18 58.9999 14.4183 58.9999 10C58.9999 5.58174 55.4182 2.00002 50.9999 2.00002C46.5816 2.00002 42.9999 5.58174 42.9999 10C42.9999 14.4183 46.5816 18 50.9999 18Z"
            fill="black" stroke="white" stroke-width="2.8" />
        <path
            d="M25.6442 72.5958L24.8038 73.8381C24.4627 73.3753 24.0242 73.083 23.4274 73.083C22.855 73.083 22.3069 73.5215 22.3069 74.1183C22.3069 75.6651 25.9487 75.0196 25.9487 78.1011C25.9487 79.9403 24.8038 81.2436 22.928 81.2436C21.6613 81.2436 20.7356 80.5128 20.1023 79.4531L21.2594 78.3204C21.503 79.0268 22.1485 79.6602 22.9159 79.6602C23.6467 79.6602 24.0973 79.039 24.0973 78.3326C24.0973 77.3825 23.2204 77.1146 22.5017 76.8344C21.3203 76.3472 20.4555 75.7504 20.4555 74.3253C20.4555 72.8028 21.5882 71.5727 23.1351 71.5727C23.9512 71.5727 25.0839 71.9746 25.6442 72.5958ZM35.5388 76.3959C35.5388 79.0999 33.7971 81.2436 30.9957 81.2436C28.1943 81.2436 26.4525 79.0999 26.4525 76.3959C26.4525 73.6676 28.2552 71.5727 30.9957 71.5727C33.7362 71.5727 35.5388 73.6676 35.5388 76.3959ZM33.6874 76.3229C33.6874 74.8369 32.6887 73.3388 30.9957 73.3388C29.3026 73.3388 28.3039 74.8369 28.3039 76.3229C28.3039 77.7357 29.0103 79.4775 30.9957 79.4775C32.981 79.4775 33.6874 77.7357 33.6874 76.3229ZM40.036 77.1267L42.6303 81H40.4623L38.2333 77.2973H38.209V81H36.4185V71.8163H38.8423C40.6572 71.8163 41.9117 72.6201 41.9117 74.5811C41.9117 75.7504 41.2662 76.9197 40.036 77.1267ZM38.209 73.2779V76.0427H38.4404C39.427 76.0427 40.1212 75.7504 40.1212 74.6298C40.1212 73.4971 39.4026 73.2779 38.4526 73.2779H38.209ZM48.2772 79.0634H45.086L44.3309 81H42.443L46.0239 71.5727H47.4124L50.8959 81H48.9836L48.2772 79.0634ZM47.7778 77.6018L46.6329 74.2644H46.6085L45.5976 77.6018H47.7778ZM53.4501 73.3753V81H51.6596V73.3753H49.8082V71.8163H55.3014V73.3753H53.4501ZM60.0528 79.0634H56.8616L56.1064 81H54.2185L57.7995 71.5727H59.188L62.6715 81H60.7592L60.0528 79.0634ZM59.5534 77.6018L58.4085 74.2644H58.3841L57.3732 77.6018H59.5534ZM65.0074 71.8163V81H63.2169V71.8163H65.0074ZM68.307 76.7857L65.4569 71.8163H67.5397L69.1474 75.0074L70.9013 71.8163H72.9963L70.0975 76.7857V81H68.307V76.7857ZM82.1059 76.3959C82.1059 79.0999 80.3641 81.2436 77.5627 81.2436C74.7613 81.2436 73.0196 79.0999 73.0196 76.3959C73.0196 73.6676 74.8222 71.5727 77.5627 71.5727C80.3032 71.5727 82.1059 73.6676 82.1059 76.3959ZM80.2545 76.3229C80.2545 74.8369 79.2558 73.3388 77.5627 73.3388C75.8697 73.3388 74.871 74.8369 74.871 76.3229C74.871 77.7357 75.5774 79.4775 77.5627 79.4775C79.5481 79.4775 80.2545 77.7357 80.2545 76.3229Z"
            fill="white" />
    </g>
    <defs>
        <clipPath id="clip0_6_54">
            <rect width="101" height="88" fill="white" />
        </clipPath>
    </defs>
</svg>